<?xml version="1.0" encoding="UTF-8" standalone="no"?>
<svg xmlns="http://www.w3.org/2000/svg" width="1200" height="1200" version="1.0">
  <defs>
    <style type="text/css">
      @import url('https://fonts.googleapis.com/css?family=Fira+Sans+Condensed:100,200,300,400');
    </style>
  </defs>
  <g font-family="Fira Sans Condensed">
    <text x="20" y="80" font-weight="500" font-size="28px">
      Decision Model and Notation Toolkit components
    </text>
    <g>
      <g transform="translate(10 140)" >
        <g stroke="#000000">
          <rect x="0" y="0" width="220" height="70" stroke-width="2" fill="none"/>
          <line x1="0" y1="40" x2="220" y2="40" stroke-width="0.5"/>
          <line x1="140" y1="0" x2="140" y2="40" stroke-width="0.5"/>
        </g>
        <text x="70" y="26" text-anchor="middle">examples</text>
        <text x="180" y="26" text-anchor="middle">0.0.11</text>
        <text x="110" y="62" text-anchor="middle">dmntk_examples</text>
      </g>

      <g transform="translate(260 140)" stroke="#000000">
        <rect x="0" y="0" width="220" height="70" stroke-width="2" fill="none"/>
        <line x1="0" y1="40" x2="220" y2="40" stroke-width="1"/>
        <line x1="140" y1="0" x2="140" y2="40" stroke-width="1"/>
        <text x="70" y="26" text-anchor="middle">common</text>
        <text x="180" y="26" text-anchor="middle">0.0.11</text>
        <text x="110" y="62" text-anchor="middle">dmntk_common</text>
      </g>

      <g transform="translate(510 140)" stroke="#000000">
        <rect x="0" y="0" width="220" height="70" stroke-width="2" fill="none"/>
        <line x1="0" y1="40" x2="220" y2="40" stroke-width="1"/>
        <line x1="140" y1="0" x2="140" y2="40" stroke-width="1"/>
        <text x="70" y="26" text-anchor="middle">feel-grammar</text>
        <text x="180" y="26" text-anchor="middle">0.0.11</text>
        <text x="110" y="62" text-anchor="middle">dmntk_feel_grammar</text>
      </g>

      <g transform="translate(260 280)" stroke="#000000">
        <rect x="0" y="0" width="220" height="70" stroke-width="2" fill="none"/>
        <line x1="0" y1="40" x2="220" y2="40" stroke-width="1"/>
        <line x1="140" y1="0" x2="140" y2="40" stroke-width="1"/>
        <text x="70" y="26" text-anchor="middle">feel</text>
        <text x="180" y="26" text-anchor="middle">0.0.11</text>
        <text x="110" y="62" text-anchor="middle">dmntk_feel</text>
      </g>

      <g transform="translate(510 420)" stroke="#000000">
        <rect x="0" y="0" width="220" height="70" stroke-width="2" fill="none"/>
        <line x1="0" y1="40" x2="220" y2="40" stroke-width="1"/>
        <line x1="140" y1="0" x2="140" y2="40" stroke-width="1"/>
        <text x="70" y="26" text-anchor="middle">feel-parser</text>
        <text x="180" y="26" text-anchor="middle">0.0.11</text>
        <text x="110" y="62" text-anchor="middle">dmntk_feel_parser</text>
      </g>

    </g>
  </g>
</svg>
